<?xml version="1.0" encoding="utf-8"?>
<svg width="800px" height="600px"
     xmlns="http://www.w3.org/2000/svg"
     xmlns:xhtml="http://www.w3.org/1999/xhtml"
     xmlns:xlink="http://www.w3.org/1999/xlink"
     xmlns:a="http://www.adobe.com/svg10-extensions" a:timeline="independent"
     onload="top.load(evt)">

  <defs>
    <clipPath id="gameareaclip">
      <rect x="20" y="20" width="800" height="600"/>
    </clipPath>
    <pattern id="background_pattern" x="0" y="0" width="20" height="20" patternUnits="userSpaceOnUse">
      <rect width="20" height="20" style="fill:orange"/>
      <circle cx="10" cy="10" r="8" style="fill:lightyellow"/>
    </pattern>
    <radialGradient id="player_color">
      <stop offset="0.0" style="stop-color:yellow;stop-opacity:1"/>
      <stop offset="0.8" style="stop-color:yellow;stop-opacity:1"/>
      <stop offset="1.0" style="stop-color:orange;stop-opacity:1"/>
    </radialGradient>

    <clipPath id="platformclip">
      <rect x="20" y="20" width="20" height="20"/>
    </clipPath>

    <rect id="platform_square" x="0" y="0" width="20" height="20" style="fill:orange" />
    <rect id="coin" x="0" y="0" width="20" height="20" style="fill:yellow" />
    <rect id="level_exit" x="-20" y="0" width="40" height="40" style="fill:green" />
    <rect id="ghost" x="0" y="0" width="20" height="40" style="fill:purple" />
    <rect id="bullet" x="0" y="0" width="10" height="10" style="fill:red" />
    <rect id="portal" x="0" y="0" width="20" height="20" style="fill:blue" />

  </defs>


  <rect width="100%" height="100%" style="fill:url(#background_pattern);stroke:orange;stroke-width:4" />

  <rect x="20" y="20" width="800" height="600" style="fill:black;stroke:red;stroke-width:5" />

  <g id="clock">
    <text x="830" y="40" width="100" height="100" style="fill:black;font-size:30px">TIME LEFT</text>
    <text x="880" y="70" width="100" height="100" id="clock_text" style="fill:black;font-size:30px">100</text>
  </g>
  <text x="850" y="110" width="100" height="100" id="level_text" style="fill:black;font-size:30px">Level 1</text>

  <text x="850" y="150" width="100" height="100" style="fill:black;font-size:30px">Score</text>
  <text x="880" y="190" width="100" height="100" id="score" style="fill:black;font-size:30px">0</text>
  <text x="850" y="230" width="100" height="100" style="fill:black;font-size:30px">Bullet</text>
  <text x="880" y="270" width="100" height="100" id="bullet_left" style="fill:black;font-size:30px">8/8</text>



  <!-- Add your button here -->

  <g style="clip-path:url(#gameareaclip)">
    <g transform="translate(20,20)">
      <g id="gamearea" transform="translate(0,0)" width="800" height="600">
        <rect x="0" y="0" width="800" height="600" style="fill:white" />

        <g id="platforms">

          <!-- Add your platforms here -->

        </g>

        <g id="player">
          <!--
          <circle cx="20" cy="20" r="20" style="fill:url(#player_color);stroke:black;stroke-width:2"/>
          <ellipse cx="15" cy="15" rx="3" ry="6" style="fill:black"/>
          <ellipse cx="25" cy="15" rx="3" ry="6" style="fill:black"/>
          <path d="M10,25 l20,0 q0,8 -10,8 t-10,-8" style="fill:orange;stroke:black;stroke-black:2"/>
        -->
       <svg
           width="40"
           height="40"
           xmlns:rdf="http://www.w3.org/1999/02/22-rdf-syntax-ns#"
           xmlns="http://www.w3.org/2000/svg"
           xmlns:cc="http://creativecommons.org/ns#"
           xmlns:xlink="http://www.w3.org/1999/xlink"
           xmlns:dc="http://purl.org/dc/elements/1.1/"
           xmlns:svg="http://www.w3.org/2000/svg"
           xmlns:inkscape="http://www.inkscape.org/namespaces/inkscape"
           xmlns:sodipodi="http://sodipodi.sourceforge.net/DTD/sodipodi-0.dtd"
           xmlns:ns1="http://sozi.baierouge.fr"
           id="svg2"
           viewBox="0 0 50 50"
           version="1.0"
         >
         <text
             id="text7529"
             font-size="28px"
             xml:space="preserve"
             transform="rotate(-.0051830)"
             y="-3087.6465"
             x="3649.4963"
             font-family="Lucida Bright"
             line-height="103.99999619%"
             fill="#000000"
           >
           <tspan
               id="tspan7531"
               y="-3087.6465"
               x="3649.4963"
           />
         </text
         >
         <g
             id="g14073"
             stroke-width="3.854"
             transform="matrix(-.38627 0 0 .38627 -60.75 71.756)"
           >
           <path
               id="path8221"
               stroke="#000"
               fill="#d8d8d8"
               d="m-212.15-181.11c16.94 0 30.67 13.77 30.67 30.7 0 12.09-7.01 22.55-17.18 27.55l22.85 64.611h-77.31l24.3-66.431c-8.43-5.47-14.03-14.95-14.03-25.73 0-16.93 13.77-30.7 30.7-30.7z"
           />
           <path
               id="path8223"
               d="m-191.27-98.063l4.92 14.171-53.26-8.457 4.86-13.011 43.48 7.297z"
               fill-opacity=".65882"
               fill-rule="evenodd"
               stroke="#000"
               fill="#333"
           />
           <path
               id="path8225"
               stroke="#3e3e3e"
               fill="#7c7c7c"
               d="m-212.15-183.84c18.52 0 33.53 15.06 33.53 33.58 0 13.22-7.66 24.66-18.78 30.12l-32.98-1.98c-9.21-5.98-15.33-16.35-15.33-28.14 0-18.52 15.05-33.58 33.56-33.58z"
           />
           <path
               id="path8227"
               stroke="#000"
               fill="#d8d8d8"
               d="m-212.15-183.84c18.52 0 33.53 15.06 33.53 33.58 0 13.22-7.66 24.66-18.78 30.12l-32.98-1.98c-9.21-5.98-15.33-16.35-15.33-28.14l27.71-0.26 2.51-10.62-24.29-8.16c6.06-8.78 16.18-14.54 27.63-14.54z"
           />
         </g
         >
         <path
             id="path9014"
             stroke-linejoin="round"
             d="m47.114 26.805h-14.911"
             stroke="#333"
             stroke-linecap="round"
             stroke-width="1.2814"
             fill="#e15e5e"
         />
         <path
             id="path9012"
             stroke-linejoin="round"
             d="m136 244.61a12 12 0 1 1 -24 0 12 12 0 1 1 24 0z"
             transform="matrix(-.22595 0 0 .22595 74.666 -28.524)"
             stroke="#333"
             stroke-linecap="round"
             stroke-width="5.6712"
             fill="#e15e5e"
         />
         <path
             id="path9016"
             stroke-linejoin="round"
             d="m41.522 24.941v3.728"
             stroke="#333"
             stroke-linecap="round"
             stroke-width="1.2814"
             fill="#e15e5e"
         />
         <path
             id="path9018"
             stroke-linejoin="round"
             d="m39.658 24.009v5.592"
             stroke="#333"
             stroke-linecap="round"
             stroke-width="1.2814"
             fill="#e15e5e"
         />
         <path
             id="path9020"
             stroke-linejoin="round"
             d="m37.794 23.077v7.456"
             stroke="#333"
             stroke-linecap="round"
             stroke-width="1.2814"
             fill="#e15e5e"
         />
         <path
             id="rect9022"
             stroke-linejoin="round"
             d="m31.271 23.08c2.581 0 4.659 1.663 4.659 3.728 0 1.893-1.747 3.438-4.026 3.684l-1.565 2.839h-1.864l0.954-2.795h-2.534l-3.458 4.601h-2.796l2.999-4.98c-1.554-0.603-2.621-1.869-2.621-3.349 0-2.065 2.079-3.728 4.66-3.728h5.592z"
             stroke="#333"
             stroke-linecap="round"
             stroke-width="1.281"
             fill="#e15e5e"
         />
         <path
             id="rect8959"
             stroke-linejoin="round"
             d="m11.611 21.419c-3.32-0.506-6.6537 3.421-7.4769 8.819l-0.9593 6.292c-0.2929 1.921 1.0112 3.703 2.9224 3.994l2.5417 0.388 2.5421 0.388c1.911 0.291 3.687-1.022 3.98-2.943 0.283-2.137 0.572-4.192 0.959-6.291 0.823-5.399-1.189-10.141-4.509-10.647z"
             stroke="#333"
             stroke-linecap="round"
             stroke-width="1.281"
             fill="#e15e5e"
         />
         <path
             id="path9034"
             stroke-linejoin="bevel"
             d="m703 1115.5a15 15.5 0 1 1 -30 0 15 15.5 0 1 1 30 0z"
             transform="matrix(-.25632 0 0 .25660 210.46 -252.73)"
             stroke="#000"
             stroke-linecap="square"
             stroke-width="5.1849"
             fill="#d8d8d8"
         />
         <path
             id="path9001"
             stroke-linejoin="bevel"
             d="m703 1115.5a15 15.5 0 1 1 -30 0 15 15.5 0 1 1 30 0z"
             transform="matrix(-.28676 0 0 .28694 221.15 -284.64)"
             stroke="#000"
             stroke-linecap="square"
             stroke-width="4.6356"
             fill="#d8d8d8"
         />
         <metadata
           >
           <rdf:RDF
             >
             <cc:Work
               >
               <dc:format
                 >image/svg+xml</dc:format
               >
               <dc:type
                   rdf:resource="http://purl.org/dc/dcmitype/StillImage"
               />
               <cc:license
                   rdf:resource="http://creativecommons.org/licenses/publicdomain/"
               />
               <dc:publisher
                 >
                 <cc:Agent
                     rdf:about="http://openclipart.org/"
                   >
                   <dc:title
                     >Openclipart</dc:title
                   >
                 </cc:Agent
                 >
               </dc:publisher
               >
               <dc:title
                 >ray gun character</dc:title
               >
               <dc:date
                 >2009-04-12T04:05:06</dc:date
               >
               <dc:description
               />
               <dc:source
                 >https://openclipart.org/detail/176131/Clipart-by-qubodup</dc:source
               >
               <dc:creator
                 >
                 <cc:Agent
                   >
                   <dc:title
                     >qubodup</dc:title
                   >
                 </cc:Agent
                 >
               </dc:creator
               >
               <dc:subject
                 >
                 <rdf:Bag
                   >
                   <rdf:li
                     >robot</rdf:li
                   >
                   <rdf:li
                     >scifi</rdf:li
                   >
                   <rdf:li
                     >science</rdf:li
                   >
                   <rdf:li
                     >fiction</rdf:li
                   >
                   <rdf:li
                     >raygun</rdf:li
                   >
                   <rdf:li
                     >jetpack</rdf:li
                   >
                   <rdf:li
                     >man</rdf:li
                   >
                   <rdf:li
                     >cartoon</rdf:li
                   >
                 </rdf:Bag
                 >
               </dc:subject
               >
             </cc:Work
             >
             <cc:License
                 rdf:about="http://creativecommons.org/licenses/publicdomain/"
               >
               <cc:permits
                   rdf:resource="http://creativecommons.org/ns#Reproduction"
               />
               <cc:permits
                   rdf:resource="http://creativecommons.org/ns#Distribution"
               />
               <cc:permits
                   rdf:resource="http://creativecommons.org/ns#DerivativeWorks"
               />
             </cc:License
             >
           </rdf:RDF
           >
         </metadata
         >
       </svg
       >
        </g>
      </g>
    </g>
  </g>
  <text x="120" y="320" id="game_over_text" style="visibility:hidden;" >GAME OVER </text>

</svg>
