<?xml version="1.0" encoding="utf-8"?>
<svg width="800px" height="600px"
     xmlns="http://www.w3.org/2000/svg"
     xmlns:xhtml="http://www.w3.org/1999/xhtml"
     xmlns:xlink="http://www.w3.org/1999/xlink"
     xmlns:a="http://www.adobe.com/svg10-extensions" a:timeline="independent"
     onload="top.load(evt)">

  <defs>
    <clipPath id="gameareaclip">
      <rect x="20" y="20" width="800" height="600"/>
    </clipPath>
    <pattern id="background_pattern" x="0" y="0" width="20" height="20" patternUnits="userSpaceOnUse">
      <rect width="20" height="20" style="fill:orange"/>
      <circle cx="10" cy="10" r="8" style="fill:lightyellow"/>
    </pattern>
    <radialGradient id="player_color">
      <stop offset="0.0" style="stop-color:yellow;stop-opacity:1"/>
      <stop offset="0.8" style="stop-color:yellow;stop-opacity:1"/>
      <stop offset="1.0" style="stop-color:orange;stop-opacity:1"/>
    </radialGradient>

    <clipPath id="platformclip">
      <rect x="20" y="20" width="20" height="20"/>
    </clipPath>

    <rect id="platform_square" x="0" y="0" width="20" height="20" style="fill:orange" />
    <rect id="coin" x="0" y="0" width="20" height="20" style="fill:yellow" />
    <rect id="level_exit" x="-20" y="0" width="40" height="40" style="fill:green" />

  </defs>


  <rect width="100%" height="100%" style="fill:url(#background_pattern);stroke:orange;stroke-width:4" />

  <rect x="20" y="20" width="800" height="600" style="fill:black;stroke:red;stroke-width:5" />

  <g id="clock">
    <text x="830" y="40" width="100" height="100" style="fill:black;font-size:30px">TIME LEFT</text>
    <text x="880" y="70" width="100" height="100" id="clock_text" style="fill:black;font-size:30px">100</text>
  </g>
  <text x="850" y="110" width="100" height="100" id="level_text" style="fill:black;font-size:30px">Level 1</text>



  <!-- Add your button here -->

  <g style="clip-path:url(#gameareaclip)">
    <g transform="translate(20,20)">
      <g id="gamearea" transform="translate(0,0)" width="800" height="600">
        <rect x="0" y="0" width="800" height="600" style="fill:white" />

        <g id="platforms">

          <!-- Add your platforms here -->

        </g>

        <g id="player">
          <circle cx="20" cy="20" r="20" style="fill:url(#player_color);stroke:black;stroke-width:2"/>
          <ellipse cx="15" cy="15" rx="3" ry="6" style="fill:black"/>
          <ellipse cx="25" cy="15" rx="3" ry="6" style="fill:black"/>
          <path d="M10,25 l20,0 q0,8 -10,8 t-10,-8" style="fill:orange;stroke:black;stroke-black:2"/>
        </g>
      </g>
    </g>
  </g>
  <text x="120" y="320" id="game_over_text" style="visibility:hidden;" >GAME OVER </text>

</svg>
